
<svg width="100" height="28" viewBox="0 0 100 28" fill="none" xmlns="http://www.w3.org/2000/svg">
<path d="M17.0372 0.743027V12.3746H4.71207V0.743027H0V27.0031H4.71207V14.9876H17.0372V27.0031H21.7492V0.743027H17.0372Z" fill="#226752"/>
<path d="M64.2384 22.452C64.2384 22.452 64.2384 15.4799 64.2384 14.8638C64.2384 13.3313 63.8916 10.5046 60.5697 8.92878C57.2477 7.35293 51.7864 6.51083 47.4087 11.3251L49.0929 12.7492C49.0929 12.7492 52.7399 9.23219 57.0557 11.065C58.3777 11.6285 59.3096 13.1888 59.452 14.1981C59.5728 15.065 59.452 16.6563 59.452 16.6563C58.1981 15.8854 56.2724 15.0774 53.6904 15.0774C48.7492 15.0774 45.9009 17.7306 45.9009 21.3777C45.9009 25.0248 48.7492 27.4179 53.6904 27.4179C56.4211 27.4179 58.418 26.1207 59.6594 24.9566C59.7616 25.5975 59.9009 26.2012 60.0991 26.8792H64.7802C64.2755 25.5263 64.2415 22.9628 64.2384 22.452ZM55.0464 24.9628C50.4706 24.9628 50.7306 21.3808 50.7306 21.3808C50.7306 21.3808 50.4706 17.5387 55.0464 17.5387C56.9567 17.5387 58.4427 18.257 59.4489 18.9257L59.4458 22.4675C58.4365 23.7585 56.9783 24.9628 55.0464 24.9628Z" fill="#226752"/>
<path d="M34.6223 7.69659C27.1486 8.02786 24.5789 13.4613 24.5789 17.3684C24.5789 24.4675 30.4272 27.4241 34.6223 27.4241C38.8173 27.4241 41.4087 26.3467 43.5015 23.3251L41.7957 22.0743C41.7957 22.0743 40.1115 24.5975 36.3808 24.5975C32.0217 24.5975 29.6687 21.3405 29.6687 18.6842H44.4706C45.3375 13.3313 41.3653 7.39937 34.6223 7.69659ZM29.6718 16.0712C29.6718 16.0712 30.1889 10.3529 34.483 10.1796C39.2724 10.1796 39.5758 16.0712 39.5758 16.0712H29.6718Z" fill="#226752"/>
<path d="M73.5263 9.56656C72.9474 10.1734 72.5015 10.8638 72.0774 11.5882V8.14241L67.0495 8.15169C67.3034 8.83281 67.4396 9.90402 67.5015 10.7616V26.8823H72.2291L72.2353 16.8235C72.2384 16.2446 72.291 15.6563 72.3994 15.0867C72.8638 12.6501 74.6471 11.1362 77.1362 11.0433L78.904 11.0402V7.70587C76.9257 7.56656 74.9226 8.10526 73.5263 9.56656Z" fill="#226752"/>
<path d="M99.7554 27.0124C99.5015 26.3313 99.3653 25.2601 99.3034 24.4025V0.712067H94.4985V10.8019C93.1362 8.87925 91.0124 7.64705 88.0681 7.64705C83.4923 7.64705 79.1641 11.8483 79.1641 17.421C79.1641 23.7399 83.4923 27.4118 88.0681 27.4118C91.1579 27.4118 93.2508 26.3932 94.5635 24.4118C94.5789 24.5758 94.6037 24.8452 94.6347 25.1022C94.7368 25.743 94.8762 26.3467 95.0743 27.0248H99.7554C99.7554 27.0217 99.7523 27.0155 99.7523 27.0124H99.7554ZM89.5728 24.2043C86.7276 24.2043 83.9938 21.7121 83.9938 17.5356C83.9938 13.6687 86.7245 11.1765 89.5728 11.1765C91.6223 11.1765 93.5697 12.517 94.5015 14.7183V20.7059C93.5727 22.9597 91.6223 24.2043 89.5728 24.2043Z" fill="#226752"/>
</svg>
